<svg width="124" height="124" viewBox="0 0 124 124" fill="none" xmlns="http://www.w3.org/2000/svg">
<g clip-path="url(#clip0_103_300)">
<path d="M124 62C124 96.2417 96.2417 124 62 124C27.7583 124 0 96.2417 0 62C0 27.7583 27.7583 0 62 0C96.2417 0 124 27.7583 124 62Z" fill="#1D2633"/>
<path d="M108.056 77.8306C110.15 77.8306 111.639 79.8655 110.851 81.8054C103.023 101.096 84.1 114.7 61.9997 114.7C39.8995 114.7 20.9764 101.096 13.1479 81.8054C12.3605 79.8655 13.8498 77.8306 15.9436 77.8306H108.056Z" fill="#EDEBDE"/>
<path d="M110.851 42.1944C111.639 44.1345 110.15 46.1694 108.056 46.1694H15.9436C13.8498 46.1694 12.3606 44.1345 13.1479 42.1944C20.9764 22.9039 39.8994 9.29999 61.9997 9.29999C84.1 9.29999 103.023 22.9039 110.851 42.1944Z" fill="#EDEBDE"/>
<path d="M52.6997 10.118C55.7186 9.58046 58.8264 9.29999 61.9999 9.29999C65.1732 9.29999 68.2809 9.58046 71.2997 10.118V46.1694H52.6997V10.118Z" fill="#47965E"/>
<path d="M71.3006 77.8306H52.6989C52.6598 85.9184 51.1863 93.9359 48.3459 101.51L44.5137 111.73C49.9853 113.654 55.8704 114.7 61.9998 114.7C68.1292 114.7 74.0142 113.654 79.4859 111.73L75.6536 101.51C72.8133 93.9359 71.3397 85.9184 71.3006 77.8306Z" fill="#47965E"/>
<path d="M71.2998 10.1179C78.028 11.3159 84.3147 13.7907 89.8998 17.2828V46.1694H71.2998V10.1179Z" fill="#295837"/>
<path d="M79.486 111.73C87.945 108.755 95.4163 103.684 101.276 97.1391L100.361 96.5573C93.9387 92.4701 90.0132 85.4278 89.9023 77.8306H71.3008C71.3398 85.9184 72.8134 93.9359 75.654 101.51L79.486 111.73Z" fill="#295837"/>
<path d="M34.0996 17.2828C39.6847 13.7907 45.9712 11.3159 52.6996 10.1179V46.1694H34.0996V17.2828Z" fill="#76FA9C"/>
<path d="M34.0976 77.8306H52.6991C52.6602 85.8838 51.199 93.8674 48.3824 101.413L44.5139 111.73C36.0547 108.755 28.5836 103.684 22.7241 97.1391L23.6385 96.5573C30.061 92.4701 33.9867 85.4278 34.0976 77.8306Z" fill="#76FA9C"/>
<path d="M16.584 53.304L16.386 60.894L16.408 68.044L15.132 68.352C14.7507 68.1613 14.362 67.9047 13.966 67.582C13.57 67.2447 13.2473 66.8413 12.998 66.372L13.922 61.378H8.07L8.092 68.044L6.816 68.352C6.43467 68.1613 6.046 67.9047 5.65 67.582C5.254 67.2447 4.93133 66.8413 4.682 66.372L5.76 60.608L5.496 52.6L6.134 52.16C6.29533 52.1893 6.51533 52.27 6.794 52.402C7.08733 52.534 7.37333 52.6807 7.652 52.842C7.93067 53.0033 8.136 53.1573 8.268 53.304L8.114 58.914H14.01L13.812 52.6L14.45 52.16C14.6113 52.1893 14.8313 52.27 15.11 52.402C15.4033 52.534 15.6893 52.6807 15.968 52.842C16.2467 53.0033 16.452 53.1573 16.584 53.304ZM28.9431 65.162C29.0751 65.338 29.2071 65.5873 29.3391 65.91C29.4711 66.2327 29.5518 66.5627 29.5811 66.9L26.6111 68.352C26.2591 68.2493 25.8778 68.0807 25.4671 67.846C25.0711 67.6113 24.7704 67.3987 24.5651 67.208L24.6531 65.602C23.9198 66.4087 23.1791 67.054 22.4311 67.538C21.6831 68.022 21.0304 68.2933 20.4731 68.352C20.2531 68.2347 19.9818 68.0293 19.6591 67.736C19.3511 67.428 19.0578 67.0907 18.7791 66.724C18.5151 66.3427 18.3391 65.9833 18.2511 65.646L18.7131 59.574C18.9331 59.1047 19.2484 58.6353 19.6591 58.166C20.0698 57.682 20.4804 57.2933 20.8911 57C21.9471 56.8093 22.9738 56.6993 23.9711 56.67C24.9684 56.626 26.0684 56.7947 27.2711 57.176C27.4324 57.352 27.5791 57.5647 27.7111 57.814C27.8431 58.0633 27.9531 58.3053 28.0411 58.54C28.1438 58.76 28.2024 58.9287 28.2171 59.046C28.0704 59.6913 27.8724 60.322 27.6231 60.938C27.3884 61.554 27.1024 62.1407 26.7651 62.698L27.0291 65.646L28.9431 65.162ZM21.2871 65.668C21.8151 65.4773 22.3944 65.0667 23.0251 64.436C23.6704 63.8053 24.2571 63.0573 24.7851 62.192L24.8731 58.87C24.2718 58.8553 23.6924 58.8847 23.1351 58.958C22.5778 59.0313 22.0498 59.1413 21.5511 59.288C21.2871 60.0213 21.0964 60.7693 20.9791 61.532C20.8764 62.28 20.8251 62.9767 20.8251 63.622C20.8398 64.2527 20.8911 64.7587 20.9791 65.14C21.0671 65.5213 21.1698 65.6973 21.2871 65.668ZM37.2494 56.648C37.5867 56.824 37.9094 57.154 38.2174 57.638C38.54 58.1073 38.7674 58.5987 38.8994 59.112L38.7014 61.862C38.452 62.038 38.1367 62.17 37.7554 62.258C37.374 62.3313 37.022 62.3753 36.6994 62.39L36.1714 61.884C36.2447 61.3413 36.2887 60.8647 36.3034 60.454C36.3327 60.0287 36.318 59.6547 36.2594 59.332C35.8047 59.6693 35.3794 60.1607 34.9834 60.806C34.602 61.4367 34.25 62.1407 33.9274 62.918L33.9934 68C33.6707 68.088 33.2967 68.132 32.8714 68.132C32.446 68.132 32.0647 68.088 31.7274 68C31.2727 67.516 30.8987 66.966 30.6054 66.35C30.708 65.866 30.8547 65.3527 31.0454 64.81C31.236 64.2527 31.456 63.7027 31.7054 63.16V62.368L31.4414 59.332L29.5274 59.816C29.4247 59.64 29.3 59.398 29.1534 59.09C29.0067 58.7673 28.9187 58.4373 28.8894 58.1L31.8594 56.648C32.006 56.6627 32.2114 56.7433 32.4754 56.89C32.754 57.0367 33.0254 57.198 33.2894 57.374C33.568 57.5353 33.7734 57.6747 33.9054 57.792L33.8174 59.53C34.4187 58.694 35.0274 58.0047 35.6434 57.462C36.2594 56.9193 36.7947 56.648 37.2494 56.648ZM49.4177 56.956C49.579 57.1173 49.7404 57.33 49.9017 57.594C50.063 57.8433 50.2024 58.0853 50.3197 58.32C50.4517 58.54 50.525 58.7087 50.5397 58.826C50.2464 60.7033 49.7624 62.324 49.0877 63.688C48.413 65.052 47.6504 66.13 46.7997 66.922C45.9637 67.6993 45.1424 68.176 44.3357 68.352C44.101 68.22 43.8077 68.0073 43.4557 67.714C43.1184 67.4207 42.803 67.0907 42.5097 66.724C42.2164 66.3427 42.0037 65.9833 41.8717 65.646L41.1237 59.486L39.5177 59.904C39.3857 59.728 39.2537 59.464 39.1217 59.112C38.9897 58.7453 38.909 58.3933 38.8797 58.056L42.1137 56.648C42.451 56.78 42.825 57.044 43.2357 57.44C43.661 57.8213 43.991 58.2173 44.2257 58.628C43.991 59.4347 43.8664 60.2633 43.8517 61.114C43.837 61.9647 43.8957 62.742 44.0277 63.446C44.1597 64.15 44.3064 64.7073 44.4677 65.118C44.6437 65.5287 44.7977 65.712 44.9297 65.668C45.355 65.5067 45.773 65.1327 46.1837 64.546C46.609 63.9593 46.9904 63.2627 47.3277 62.456L46.4917 57.418C46.8144 57.2713 47.247 57.1467 47.7897 57.044C48.3324 56.9267 48.875 56.8973 49.4177 56.956ZM59.5957 64.546C59.6984 64.678 59.8084 64.9347 59.9257 65.316C60.0577 65.6973 60.1164 66.0347 60.1017 66.328C59.471 66.592 58.811 66.856 58.1217 67.12C57.4324 67.3693 56.787 67.604 56.1857 67.824C55.599 68.044 55.115 68.22 54.7337 68.352C54.279 68.2347 53.8024 68.0513 53.3037 67.802C52.805 67.5527 52.3504 67.2593 51.9397 66.922C51.529 66.57 51.2357 66.218 51.0597 65.866L51.3677 59.134C51.573 58.7673 51.859 58.4007 52.2257 58.034C52.607 57.6527 52.981 57.308 53.3477 57C54.1984 56.8093 55.027 56.692 55.8337 56.648C56.655 56.604 57.4397 56.6407 58.1877 56.758C58.3197 56.8313 58.4957 56.9927 58.7157 57.242C58.9504 57.4767 59.1777 57.7187 59.3977 57.968C59.6177 58.2173 59.7644 58.4007 59.8377 58.518L59.7497 61.796C59.3684 62.0747 58.855 62.368 58.2097 62.676C57.5644 62.984 56.853 63.2847 56.0757 63.578C55.2984 63.8567 54.521 64.106 53.7437 64.326C53.7584 64.6047 53.7804 64.876 53.8097 65.14C53.839 65.404 53.8757 65.6607 53.9197 65.91L59.5957 64.546ZM57.3957 59.024C56.8677 58.9507 56.3544 58.9287 55.8557 58.958C55.357 58.9873 54.8364 59.0753 54.2937 59.222C54.147 59.6767 54.0297 60.168 53.9417 60.696C53.8537 61.224 53.7877 61.7593 53.7437 62.302C54.3744 62.0967 55.0344 61.8327 55.7237 61.51C56.4277 61.1727 57.0657 60.8207 57.6377 60.454L57.3957 59.024ZM63.5228 59.156C63.7428 59.6107 64.0874 60.014 64.5568 60.366C65.0261 60.7033 65.5541 61.0627 66.1408 61.444C66.7274 61.8107 67.3068 62.2507 67.8788 62.764C68.4654 63.2627 68.9861 63.9007 69.4408 64.678C69.3234 65.3527 69.1108 65.9907 68.8028 66.592C68.4948 67.1933 68.1208 67.6627 67.6808 68C66.9621 68.1907 66.1701 68.2933 65.3048 68.308C64.4394 68.3373 63.5154 68.2567 62.5328 68.066C62.3421 67.9193 62.1221 67.736 61.8728 67.516C61.6234 67.2813 61.4034 67.0393 61.2128 66.79L61.3228 63.908C61.5721 63.82 61.8654 63.7687 62.2028 63.754C62.5401 63.7247 62.8481 63.7467 63.1268 63.82L63.4788 66.218C64.1241 66.3207 64.7841 66.328 65.4588 66.24C66.1481 66.1373 66.7201 65.976 67.1748 65.756C66.8081 65.272 66.3461 64.8393 65.7888 64.458C65.2461 64.0767 64.6741 63.7027 64.0728 63.336C63.4861 62.9547 62.9361 62.522 62.4228 62.038C61.9241 61.554 61.5354 60.96 61.2568 60.256C61.3008 59.9333 61.3961 59.5667 61.5428 59.156C61.6894 58.7307 61.8654 58.3273 62.0708 57.946C62.2908 57.5647 62.5254 57.264 62.7748 57.044C63.7281 56.78 64.6374 56.648 65.5028 56.648C66.3681 56.6333 67.2921 56.7287 68.2748 56.934C68.4654 57.0513 68.6634 57.2567 68.8688 57.55C69.0888 57.8433 69.2574 58.078 69.3748 58.254L69.0668 60.982C68.8174 61.07 68.5314 61.114 68.2088 61.114C67.8861 61.114 67.5781 61.0847 67.2848 61.026L67.0868 58.782C66.5001 58.738 65.8914 58.7453 65.2608 58.804C64.6448 58.8627 64.0654 58.98 63.5228 59.156ZM78.6325 64.92C78.7352 65.052 78.8452 65.2867 78.9625 65.624C79.0799 65.9613 79.1312 66.2767 79.1165 66.57C78.7205 66.8047 78.2659 67.0393 77.7525 67.274C77.2392 67.5087 76.7405 67.7213 76.2565 67.912C75.7872 68.1027 75.3912 68.2493 75.0685 68.352C74.6872 68.2347 74.2692 68.0513 73.8145 67.802C73.3599 67.5527 72.9492 67.2593 72.5825 66.922C72.2305 66.57 72.0032 66.218 71.9005 65.866L72.3845 59.574L70.6905 59.904L70.1405 58.408L72.4065 56.45L72.2525 54.69C72.5019 54.426 72.8025 54.1693 73.1545 53.92C73.5065 53.656 73.8439 53.458 74.1665 53.326L74.9805 53.898L74.8925 56.956C75.4939 56.8973 76.1099 56.8607 76.7405 56.846C77.3859 56.8313 78.0239 56.8533 78.6545 56.912L78.8745 58.672L78.1925 59.376C77.0192 59.288 75.8972 59.266 74.8265 59.31C74.7239 59.97 74.6505 60.6887 74.6065 61.466C74.5625 62.2433 74.5625 63.0133 74.6065 63.776C74.6505 64.524 74.7532 65.2133 74.9145 65.844L78.6325 64.92ZM91.5762 53.304L91.3782 60.894L91.4002 68.044L90.1242 68.352C89.7429 68.1613 89.3542 67.9047 88.9582 67.582C88.5622 67.2447 88.2395 66.8413 87.9902 66.372L88.9142 61.378H83.0622L83.0842 68.044L81.8082 68.352C81.4269 68.1613 81.0382 67.9047 80.6422 67.582C80.2462 67.2447 79.9235 66.8413 79.6742 66.372L80.7522 60.608L80.4882 52.6L81.1262 52.16C81.2875 52.1893 81.5075 52.27 81.7862 52.402C82.0795 52.534 82.3655 52.6807 82.6442 52.842C82.9229 53.0033 83.1282 53.1573 83.2602 53.304L83.1062 58.914H89.0022L88.8042 52.6L89.4422 52.16C89.6035 52.1893 89.8235 52.27 90.1022 52.402C90.3955 52.534 90.6815 52.6807 90.9602 52.842C91.2389 53.0033 91.4442 53.1573 91.5762 53.304ZM105.028 65.184C105.131 65.36 105.255 65.6093 105.402 65.932C105.549 66.24 105.637 66.5627 105.666 66.9L102.696 68.352C102.549 68.3373 102.337 68.2567 102.058 68.11C101.794 67.9633 101.523 67.802 101.244 67.626C100.98 67.45 100.782 67.3107 100.65 67.208L100.738 65.382C99.9607 66.2327 99.1907 66.944 98.4281 67.516C97.6801 68.0733 97.0934 68.352 96.6681 68.352C96.4481 68.2347 96.1547 68.0293 95.7881 67.736C95.4361 67.4427 95.1061 67.1127 94.7981 66.746C94.4901 66.3793 94.2921 66.0273 94.2041 65.69L94.7101 59.42L93.0821 59.838C92.9501 59.662 92.8181 59.4127 92.6861 59.09C92.5541 58.7673 92.4734 58.4373 92.4441 58.1L95.4141 56.648C95.7954 56.8387 96.1987 57.088 96.6241 57.396C97.0641 57.704 97.4014 58.0413 97.6361 58.408C97.3721 59.3173 97.1814 60.2487 97.0641 61.202C96.9614 62.1407 96.9174 63.0207 96.9321 63.842C96.9467 64.6487 97.0054 65.316 97.1081 65.844C97.6507 65.624 98.2374 65.1693 98.8681 64.48C99.5134 63.776 100.107 62.9767 100.65 62.082L100.76 57.22C101.097 57.132 101.515 57.0513 102.014 56.978C102.527 56.9047 102.945 56.912 103.268 57C103.503 57.2347 103.708 57.4913 103.884 57.77C104.06 58.0487 104.221 58.342 104.368 58.65C104.324 59.2513 104.163 59.8893 103.884 60.564C103.62 61.2387 103.275 61.9133 102.85 62.588V62.632L103.114 65.668L105.028 65.184ZM114.305 56.648C114.569 56.7653 114.848 56.956 115.141 57.22C115.435 57.484 115.699 57.7847 115.933 58.122C116.183 58.4593 116.359 58.804 116.461 59.156L116.131 65.69C115.999 65.9393 115.801 66.218 115.537 66.526C115.273 66.8193 114.98 67.1053 114.657 67.384C114.335 67.648 114.019 67.868 113.711 68.044C112.641 68.1907 111.548 68.2787 110.433 68.308C109.333 68.352 108.343 68.2493 107.463 68C107.317 67.824 107.155 67.6187 106.979 67.384C106.818 67.1493 106.679 66.922 106.561 66.702C106.444 66.482 106.371 66.3207 106.341 66.218C106.415 65.7927 106.51 65.3747 106.627 64.964C106.759 64.5387 106.906 64.128 107.067 63.732L107.089 62.346L107.155 52.776L105.439 53.216C105.337 53.04 105.212 52.798 105.065 52.49C104.919 52.1673 104.831 51.8373 104.801 51.5L107.771 50.048C107.918 50.0627 108.123 50.136 108.387 50.268C108.666 50.4 108.937 50.554 109.201 50.73C109.48 50.906 109.685 51.06 109.817 51.192L109.201 60.19C109.803 59.4567 110.419 58.826 111.049 58.298C111.68 57.77 112.281 57.3667 112.853 57.088C113.425 56.7947 113.909 56.648 114.305 56.648ZM109.443 66.152C110.059 66.1813 110.683 66.1593 111.313 66.086C111.944 66.0127 112.589 65.91 113.249 65.778C113.513 64.8687 113.689 63.9887 113.777 63.138C113.88 62.2727 113.917 61.4953 113.887 60.806C113.873 60.102 113.821 59.552 113.733 59.156C113.308 59.288 112.824 59.6033 112.281 60.102C111.753 60.6007 111.233 61.2093 110.719 61.928C110.206 62.6467 109.751 63.402 109.355 64.194L109.443 66.152Z" fill="white"/>
</g>
<defs>
<clipPath id="clip0_103_300">
<rect width="124" height="124" fill="white"/>
</clipPath>
</defs>
</svg>
