<svg width="377" height="31" viewBox="0 0 377 31" fill="none" xmlns="http://www.w3.org/2000/svg">
<path d="M0.1 23V1.4H9.22C9.43 1.4 9.71 1.41 10.06 1.43C10.42 1.44 10.74 1.47 11.02 1.52C12.31 1.72 13.365 2.145 14.185 2.795C15.015 3.445 15.625 4.265 16.015 5.255C16.405 6.235 16.6 7.33 16.6 8.54C16.6 10.35 16.15 11.9 15.25 13.19C14.35 14.47 12.94 15.26 11.02 15.56L9.22 15.68H4.18V23H0.1ZM12.28 23L8.02 14.21L12.22 13.4L16.9 23H12.28ZM4.18 11.87H9.04C9.25 11.87 9.48 11.86 9.73 11.84C9.98 11.82 10.21 11.78 10.42 11.72C10.97 11.57 11.395 11.32 11.695 10.97C11.995 10.61 12.2 10.215 12.31 9.785C12.43 9.345 12.49 8.93 12.49 8.54C12.49 8.15 12.43 7.74 12.31 7.31C12.2 6.87 11.995 6.475 11.695 6.125C11.395 5.765 10.97 5.51 10.42 5.36C10.21 5.3 9.98 5.26 9.73 5.24C9.48 5.22 9.25 5.21 9.04 5.21H4.18V11.87ZM27.7277 23.45C26.0677 23.45 24.6027 23.095 23.3327 22.385C22.0727 21.665 21.0827 20.68 20.3627 19.43C19.6527 18.17 19.2977 16.73 19.2977 15.11C19.2977 13.34 19.6477 11.8 20.3477 10.49C21.0477 9.18 22.0127 8.165 23.2427 7.445C24.4727 6.715 25.8877 6.35 27.4877 6.35C29.1877 6.35 30.6327 6.75 31.8227 7.55C33.0127 8.35 33.8927 9.475 34.4627 10.925C35.0327 12.375 35.2327 14.08 35.0627 16.04H31.0277V14.54C31.0277 12.89 30.7627 11.705 30.2327 10.985C29.7127 10.255 28.8577 9.89 27.6677 9.89C26.2777 9.89 25.2527 10.315 24.5927 11.165C23.9427 12.005 23.6177 13.25 23.6177 14.9C23.6177 16.41 23.9427 17.58 24.5927 18.41C25.2527 19.23 26.2177 19.64 27.4877 19.64C28.2877 19.64 28.9727 19.465 29.5427 19.115C30.1127 18.765 30.5477 18.26 30.8477 17.6L34.9277 18.77C34.3177 20.25 33.3527 21.4 32.0327 22.22C30.7227 23.04 29.2877 23.45 27.7277 23.45ZM22.3577 16.04V13.01H33.0977V16.04H22.3577ZM45.3796 30.65C44.4596 30.65 43.5846 30.5 42.7546 30.2C41.9246 29.91 41.1796 29.5 40.5196 28.97C39.8696 28.45 39.3396 27.84 38.9296 27.14L42.7096 25.31C42.9696 25.79 43.3396 26.155 43.8196 26.405C44.3096 26.655 44.8396 26.78 45.4096 26.78C46.0196 26.78 46.5946 26.675 47.1346 26.465C47.6746 26.265 48.1046 25.96 48.4246 25.55C48.7546 25.15 48.9096 24.65 48.8896 24.05V19.34H49.3996V6.8H52.9696V24.11C52.9696 24.51 52.9496 24.885 52.9096 25.235C52.8796 25.595 52.8196 25.95 52.7296 26.3C52.4696 27.29 51.9846 28.105 51.2746 28.745C50.5746 29.385 49.7146 29.86 48.6946 30.17C47.6746 30.49 46.5696 30.65 45.3796 30.65ZM45.0196 23.45C43.5296 23.45 42.2246 23.075 41.1046 22.325C39.9846 21.575 39.1096 20.555 38.4796 19.265C37.8596 17.975 37.5496 16.52 37.5496 14.9C37.5496 13.25 37.8646 11.785 38.4946 10.505C39.1346 9.215 40.0296 8.2 41.1796 7.46C42.3296 6.72 43.6796 6.35 45.2296 6.35C46.7696 6.35 48.0646 6.725 49.1146 7.475C50.1646 8.225 50.9596 9.245 51.4996 10.535C52.0396 11.825 52.3096 13.28 52.3096 14.9C52.3096 16.52 52.0346 17.975 51.4846 19.265C50.9446 20.555 50.1346 21.575 49.0546 22.325C47.9746 23.075 46.6296 23.45 45.0196 23.45ZM45.6796 19.82C46.5896 19.82 47.3146 19.615 47.8546 19.205C48.4046 18.795 48.7996 18.22 49.0396 17.48C49.2796 16.74 49.3996 15.88 49.3996 14.9C49.3996 13.92 49.2796 13.06 49.0396 12.32C48.7996 11.58 48.4146 11.005 47.8846 10.595C47.3646 10.185 46.6796 9.98 45.8296 9.98C44.9196 9.98 44.1696 10.205 43.5796 10.655C42.9996 11.095 42.5696 11.69 42.2896 12.44C42.0096 13.18 41.8696 14 41.8696 14.9C41.8696 15.81 42.0046 16.64 42.2746 17.39C42.5446 18.13 42.9596 18.72 43.5196 19.16C44.0796 19.6 44.7996 19.82 45.6796 19.82ZM57.4703 4.55V0.95H61.5503V4.55H57.4703ZM57.4703 23V6.8H61.5503V23H57.4703ZM72.3773 23.45C70.3373 23.45 68.6873 22.99 67.4273 22.07C66.1773 21.14 65.4173 19.83 65.1473 18.14L69.3173 17.51C69.4873 18.27 69.8623 18.865 70.4423 19.295C71.0323 19.725 71.7773 19.94 72.6773 19.94C73.4173 19.94 73.9873 19.8 74.3873 19.52C74.7873 19.23 74.9873 18.83 74.9873 18.32C74.9873 18 74.9073 17.745 74.7473 17.555C74.5873 17.355 74.2273 17.16 73.6673 16.97C73.1173 16.78 72.2573 16.53 71.0873 16.22C69.7673 15.88 68.7123 15.5 67.9223 15.08C67.1323 14.66 66.5623 14.16 66.2123 13.58C65.8623 12.99 65.6873 12.28 65.6873 11.45C65.6873 10.41 65.9523 9.51 66.4823 8.75C67.0123 7.98 67.7573 7.39 68.7173 6.98C69.6873 6.56 70.8273 6.35 72.1373 6.35C73.4073 6.35 74.5323 6.545 75.5123 6.935C76.4923 7.325 77.2823 7.88 77.8823 8.6C78.4923 9.32 78.8673 10.17 79.0073 11.15L74.8373 11.9C74.7673 11.3 74.5073 10.825 74.0573 10.475C73.6073 10.125 72.9973 9.92 72.2273 9.86C71.4773 9.81 70.8723 9.91 70.4123 10.16C69.9623 10.41 69.7373 10.77 69.7373 11.24C69.7373 11.52 69.8323 11.755 70.0223 11.945C70.2223 12.135 70.6273 12.33 71.2373 12.53C71.8573 12.73 72.7973 12.99 74.0573 13.31C75.2873 13.63 76.2723 14.005 77.0123 14.435C77.7623 14.855 78.3073 15.365 78.6473 15.965C78.9873 16.555 79.1573 17.27 79.1573 18.11C79.1573 19.77 78.5573 21.075 77.3573 22.025C76.1573 22.975 74.4973 23.45 72.3773 23.45ZM92.1735 23C91.0535 23.21 89.9535 23.3 88.8735 23.27C87.8035 23.25 86.8435 23.065 85.9935 22.715C85.1535 22.355 84.5135 21.78 84.0735 20.99C83.6735 20.25 83.4635 19.5 83.4435 18.74C83.4235 17.97 83.4135 17.1 83.4135 16.13V2.3H87.4935V15.89C87.4935 16.52 87.4985 17.09 87.5085 17.6C87.5285 18.1 87.6335 18.5 87.8235 18.8C88.1835 19.37 88.7585 19.68 89.5485 19.73C90.3385 19.78 91.2135 19.74 92.1735 19.61V23ZM80.6535 9.95V6.8H92.1735V9.95H80.6535ZM102.435 23.45C100.775 23.45 99.3097 23.095 98.0397 22.385C96.7797 21.665 95.7897 20.68 95.0697 19.43C94.3597 18.17 94.0047 16.73 94.0047 15.11C94.0047 13.34 94.3547 11.8 95.0547 10.49C95.7547 9.18 96.7197 8.165 97.9497 7.445C99.1797 6.715 100.595 6.35 102.195 6.35C103.895 6.35 105.34 6.75 106.53 7.55C107.72 8.35 108.6 9.475 109.17 10.925C109.74 12.375 109.94 14.08 109.77 16.04H105.735V14.54C105.735 12.89 105.47 11.705 104.94 10.985C104.42 10.255 103.565 9.89 102.375 9.89C100.985 9.89 99.9597 10.315 99.2997 11.165C98.6497 12.005 98.3247 13.25 98.3247 14.9C98.3247 16.41 98.6497 17.58 99.2997 18.41C99.9597 19.23 100.925 19.64 102.195 19.64C102.995 19.64 103.68 19.465 104.25 19.115C104.82 18.765 105.255 18.26 105.555 17.6L109.635 18.77C109.025 20.25 108.06 21.4 106.74 22.22C105.43 23.04 103.995 23.45 102.435 23.45ZM97.0647 16.04V13.01H107.805V16.04H97.0647ZM113.157 23V6.8H116.757V10.76L116.367 10.25C116.577 9.69 116.857 9.18 117.207 8.72C117.557 8.26 117.987 7.88 118.497 7.58C118.887 7.34 119.312 7.155 119.772 7.025C120.232 6.885 120.707 6.8 121.197 6.77C121.687 6.73 122.177 6.74 122.667 6.8V10.61C122.217 10.47 121.692 10.425 121.092 10.475C120.502 10.515 119.967 10.65 119.487 10.88C119.007 11.1 118.602 11.395 118.272 11.765C117.942 12.125 117.692 12.555 117.522 13.055C117.352 13.545 117.267 14.1 117.267 14.72V23H113.157ZM134.976 23L130.026 6.77L134.016 6.8L136.956 16.46L139.941 6.8H143.331L146.316 16.46L149.256 6.8H153.246L148.296 23H145.176L141.636 12.44L138.096 23H134.976ZM156.259 4.55V0.95H160.339V4.55H156.259ZM156.259 23V6.8H160.339V23H156.259ZM174.556 23C173.436 23.21 172.336 23.3 171.256 23.27C170.186 23.25 169.226 23.065 168.376 22.715C167.536 22.355 166.896 21.78 166.456 20.99C166.056 20.25 165.846 19.5 165.826 18.74C165.806 17.97 165.796 17.1 165.796 16.13V2.3H169.876V15.89C169.876 16.52 169.881 17.09 169.891 17.6C169.911 18.1 170.016 18.5 170.206 18.8C170.566 19.37 171.141 19.68 171.931 19.73C172.721 19.78 173.596 19.74 174.556 19.61V23ZM163.036 9.95V6.8H174.556V9.95H163.036ZM189.206 23V15.35C189.206 14.98 189.186 14.51 189.146 13.94C189.106 13.36 188.981 12.78 188.771 12.2C188.561 11.62 188.216 11.135 187.736 10.745C187.266 10.355 186.596 10.16 185.726 10.16C185.376 10.16 185.001 10.215 184.601 10.325C184.201 10.435 183.826 10.65 183.476 10.97C183.126 11.28 182.836 11.74 182.606 12.35C182.386 12.96 182.276 13.77 182.276 14.78L179.936 13.67C179.936 12.39 180.196 11.19 180.716 10.07C181.236 8.95 182.016 8.045 183.056 7.355C184.106 6.665 185.426 6.32 187.016 6.32C188.286 6.32 189.321 6.535 190.121 6.965C190.921 7.395 191.541 7.94 191.981 8.6C192.431 9.26 192.751 9.95 192.941 10.67C193.131 11.38 193.246 12.03 193.286 12.62C193.326 13.21 193.346 13.64 193.346 13.91V23H189.206ZM178.136 23V1.4H181.766V12.5H182.276V23H178.136ZM203.245 23V1.4H207.325V10.28H216.985V1.4H221.065V23H216.985V14.09H207.325V23H203.245ZM229.776 23.45C228.616 23.45 227.631 23.23 226.821 22.79C226.021 22.34 225.411 21.745 224.991 21.005C224.581 20.255 224.376 19.43 224.376 18.53C224.376 17.78 224.491 17.095 224.721 16.475C224.951 15.855 225.321 15.31 225.831 14.84C226.351 14.36 227.046 13.96 227.916 13.64C228.516 13.42 229.231 13.225 230.061 13.055C230.891 12.885 231.831 12.725 232.881 12.575C233.931 12.415 235.086 12.24 236.346 12.05L234.876 12.86C234.876 11.9 234.646 11.195 234.186 10.745C233.726 10.295 232.956 10.07 231.876 10.07C231.276 10.07 230.651 10.215 230.001 10.505C229.351 10.795 228.896 11.31 228.636 12.05L224.946 10.88C225.356 9.54 226.126 8.45 227.256 7.61C228.386 6.77 229.926 6.35 231.876 6.35C233.306 6.35 234.576 6.57 235.686 7.01C236.796 7.45 237.636 8.21 238.206 9.29C238.526 9.89 238.716 10.49 238.776 11.09C238.836 11.69 238.866 12.36 238.866 13.1V23H235.296V19.67L235.806 20.36C235.016 21.45 234.161 22.24 233.241 22.73C232.331 23.21 231.176 23.45 229.776 23.45ZM230.646 20.24C231.396 20.24 232.026 20.11 232.536 19.85C233.056 19.58 233.466 19.275 233.766 18.935C234.076 18.595 234.286 18.31 234.396 18.08C234.606 17.64 234.726 17.13 234.756 16.55C234.796 15.96 234.816 15.47 234.816 15.08L236.016 15.38C234.806 15.58 233.826 15.75 233.076 15.89C232.326 16.02 231.721 16.14 231.261 16.25C230.801 16.36 230.396 16.48 230.046 16.61C229.646 16.77 229.321 16.945 229.071 17.135C228.831 17.315 228.651 17.515 228.531 17.735C228.421 17.955 228.366 18.2 228.366 18.47C228.366 18.84 228.456 19.16 228.636 19.43C228.826 19.69 229.091 19.89 229.431 20.03C229.771 20.17 230.176 20.24 230.646 20.24ZM242.766 23V6.8H246.366V10.76L245.976 10.25C246.186 9.69 246.466 9.18 246.816 8.72C247.166 8.26 247.596 7.88 248.106 7.58C248.496 7.34 248.921 7.155 249.381 7.025C249.841 6.885 250.316 6.8 250.806 6.77C251.296 6.73 251.786 6.74 252.276 6.8V10.61C251.826 10.47 251.301 10.425 250.701 10.475C250.111 10.515 249.576 10.65 249.096 10.88C248.616 11.1 248.211 11.395 247.881 11.765C247.551 12.125 247.301 12.555 247.131 13.055C246.961 13.545 246.876 14.1 246.876 14.72V23H242.766ZM259.509 23L253.629 6.8H257.709L261.549 18.02L265.389 6.8H269.469L263.589 23H259.509ZM279.124 23.45C277.464 23.45 275.999 23.095 274.729 22.385C273.469 21.665 272.479 20.68 271.759 19.43C271.049 18.17 270.694 16.73 270.694 15.11C270.694 13.34 271.044 11.8 271.744 10.49C272.444 9.18 273.409 8.165 274.639 7.445C275.869 6.715 277.284 6.35 278.884 6.35C280.584 6.35 282.029 6.75 283.219 7.55C284.409 8.35 285.289 9.475 285.859 10.925C286.429 12.375 286.629 14.08 286.459 16.04H282.424V14.54C282.424 12.89 282.159 11.705 281.629 10.985C281.109 10.255 280.254 9.89 279.064 9.89C277.674 9.89 276.649 10.315 275.989 11.165C275.339 12.005 275.014 13.25 275.014 14.9C275.014 16.41 275.339 17.58 275.989 18.41C276.649 19.23 277.614 19.64 278.884 19.64C279.684 19.64 280.369 19.465 280.939 19.115C281.509 18.765 281.944 18.26 282.244 17.6L286.324 18.77C285.714 20.25 284.749 21.4 283.429 22.22C282.119 23.04 280.684 23.45 279.124 23.45ZM273.754 16.04V13.01H284.494V16.04H273.754ZM296.176 23.45C294.136 23.45 292.486 22.99 291.226 22.07C289.976 21.14 289.216 19.83 288.946 18.14L293.116 17.51C293.286 18.27 293.661 18.865 294.241 19.295C294.831 19.725 295.576 19.94 296.476 19.94C297.216 19.94 297.786 19.8 298.186 19.52C298.586 19.23 298.786 18.83 298.786 18.32C298.786 18 298.706 17.745 298.546 17.555C298.386 17.355 298.026 17.16 297.466 16.97C296.916 16.78 296.056 16.53 294.886 16.22C293.566 15.88 292.511 15.5 291.721 15.08C290.931 14.66 290.361 14.16 290.011 13.58C289.661 12.99 289.486 12.28 289.486 11.45C289.486 10.41 289.751 9.51 290.281 8.75C290.811 7.98 291.556 7.39 292.516 6.98C293.486 6.56 294.626 6.35 295.936 6.35C297.206 6.35 298.331 6.545 299.311 6.935C300.291 7.325 301.081 7.88 301.681 8.6C302.291 9.32 302.666 10.17 302.806 11.15L298.636 11.9C298.566 11.3 298.306 10.825 297.856 10.475C297.406 10.125 296.796 9.92 296.026 9.86C295.276 9.81 294.671 9.91 294.211 10.16C293.761 10.41 293.536 10.77 293.536 11.24C293.536 11.52 293.631 11.755 293.821 11.945C294.021 12.135 294.426 12.33 295.036 12.53C295.656 12.73 296.596 12.99 297.856 13.31C299.086 13.63 300.071 14.005 300.811 14.435C301.561 14.855 302.106 15.365 302.446 15.965C302.786 16.555 302.956 17.27 302.956 18.11C302.956 19.77 302.356 21.075 301.156 22.025C299.956 22.975 298.296 23.45 296.176 23.45ZM315.972 23C314.852 23.21 313.752 23.3 312.672 23.27C311.602 23.25 310.642 23.065 309.792 22.715C308.952 22.355 308.312 21.78 307.872 20.99C307.472 20.25 307.262 19.5 307.242 18.74C307.222 17.97 307.212 17.1 307.212 16.13V2.3H311.292V15.89C311.292 16.52 311.297 17.09 311.307 17.6C311.327 18.1 311.432 18.5 311.622 18.8C311.982 19.37 312.557 19.68 313.347 19.73C314.137 19.78 315.012 19.74 315.972 19.61V23ZM304.452 9.95V6.8H315.972V9.95H304.452ZM319.582 23V1.4H323.662V10.28H333.322V1.4H337.402V23H333.322V14.09H323.662V23H319.582ZM347.644 23.48C346.374 23.48 345.339 23.265 344.539 22.835C343.739 22.405 343.114 21.86 342.664 21.2C342.224 20.54 341.909 19.855 341.719 19.145C341.529 18.425 341.414 17.77 341.374 17.18C341.334 16.59 341.314 16.16 341.314 15.89V6.8H345.454V14.45C345.454 14.82 345.474 15.295 345.514 15.875C345.554 16.445 345.679 17.02 345.889 17.6C346.099 18.18 346.439 18.665 346.909 19.055C347.389 19.445 348.064 19.64 348.934 19.64C349.284 19.64 349.659 19.585 350.059 19.475C350.459 19.365 350.834 19.155 351.184 18.845C351.534 18.525 351.819 18.06 352.039 17.45C352.269 16.83 352.384 16.02 352.384 15.02L354.724 16.13C354.724 17.41 354.464 18.61 353.944 19.73C353.424 20.85 352.639 21.755 351.589 22.445C350.549 23.135 349.234 23.48 347.644 23.48ZM352.894 23V17.63H352.384V6.8H356.494V23H352.894ZM368.636 23.45C367.026 23.45 365.681 23.075 364.601 22.325C363.521 21.575 362.706 20.555 362.156 19.265C361.616 17.975 361.346 16.52 361.346 14.9C361.346 13.28 361.616 11.825 362.156 10.535C362.696 9.245 363.491 8.225 364.541 7.475C365.591 6.725 366.886 6.35 368.426 6.35C369.976 6.35 371.326 6.72 372.476 7.46C373.626 8.2 374.516 9.215 375.146 10.505C375.786 11.785 376.106 13.25 376.106 14.9C376.106 16.52 375.791 17.975 375.161 19.265C374.541 20.555 373.671 21.575 372.551 22.325C371.431 23.075 370.126 23.45 368.636 23.45ZM360.656 23V1.4H364.766V11.9H364.256V23H360.656ZM367.976 19.82C368.856 19.82 369.576 19.6 370.136 19.16C370.696 18.72 371.111 18.13 371.381 17.39C371.651 16.64 371.786 15.81 371.786 14.9C371.786 14 371.646 13.18 371.366 12.44C371.086 11.69 370.651 11.095 370.061 10.655C369.481 10.205 368.736 9.98 367.826 9.98C366.976 9.98 366.286 10.185 365.756 10.595C365.236 11.005 364.856 11.58 364.616 12.32C364.376 13.06 364.256 13.92 364.256 14.9C364.256 15.88 364.376 16.74 364.616 17.48C364.856 18.22 365.246 18.795 365.786 19.205C366.336 19.615 367.066 19.82 367.976 19.82Z" fill="url(#paint0_linear_103_296)"/>
<defs>
<linearGradient id="paint0_linear_103_296" x1="-2" y1="23" x2="432.733" y2="21.4167" gradientUnits="userSpaceOnUse">
<stop stop-color="#6CE169"/>
<stop offset="0.800841" stop-color="#6D3AC0" stop-opacity="0.99"/>
<stop offset="1" stop-color="#3CC41A" stop-opacity="0.25"/>
</linearGradient>
</defs>
</svg>
